<mxfile host="app.diagrams.net" modified="2023-01-24T04:44:36.282Z" agent="5.0 (Windows NT 10.0; Win64; x64) AppleWebKit/537.36 (KHTML, like Gecko) Chrome/109.0.0.0 Safari/537.36" etag="4aje7INM86JtVK_gwsmY" version="20.3.2" type="github">
  <diagram name="Page-1" id="197159a0-c6a4-9194-75a8-e4174976684c">
    <mxGraphModel dx="1840" dy="1552" grid="1" gridSize="10" guides="1" tooltips="1" connect="1" arrows="1" fold="1" page="1" pageScale="1.5" pageWidth="1169" pageHeight="826" background="none" math="0" shadow="0">
      <root>
        <mxCell id="0" style=";html=1;" />
        <mxCell id="1" style=";html=1;" parent="0" />
        <mxCell id="GcWamPMHpTgms4pKiPbo-2" value="" style="shadow=0;dashed=0;html=1;labelPosition=center;verticalLabelPosition=bottom;verticalAlign=top;align=center;outlineConnect=0;shape=mxgraph.veeam.3d.datastore;" vertex="1" parent="1">
          <mxGeometry x="110" y="460.31" width="62.89" height="101.07" as="geometry" />
        </mxCell>
        <mxCell id="GcWamPMHpTgms4pKiPbo-3" value="" style="shadow=0;dashed=0;html=1;labelPosition=center;verticalLabelPosition=bottom;verticalAlign=top;align=center;outlineConnect=0;shape=mxgraph.veeam.3d.esx_esxi;" vertex="1" parent="1">
          <mxGeometry x="310" y="290" width="168.09" height="230" as="geometry" />
        </mxCell>
        <mxCell id="GcWamPMHpTgms4pKiPbo-7" value="" style="shadow=0;dashed=0;html=1;labelPosition=center;verticalLabelPosition=bottom;verticalAlign=top;align=center;outlineConnect=0;shape=mxgraph.veeam.3d.workstation;" vertex="1" parent="1">
          <mxGeometry x="1110" y="575.54" width="160.65" height="131.05" as="geometry" />
        </mxCell>
        <mxCell id="GcWamPMHpTgms4pKiPbo-9" value="" style="endArrow=classic;html=1;rounded=0;jumpSize=20;strokeWidth=4;" edge="1" parent="1" source="GcWamPMHpTgms4pKiPbo-3" target="GcWamPMHpTgms4pKiPbo-2">
          <mxGeometry width="50" height="50" relative="1" as="geometry">
            <mxPoint x="460" y="854.47" as="sourcePoint" />
            <mxPoint x="510" y="804.47" as="targetPoint" />
          </mxGeometry>
        </mxCell>
        <mxCell id="GcWamPMHpTgms4pKiPbo-11" value="" style="points=[];aspect=fixed;html=1;align=center;shadow=0;dashed=0;image;image=img/lib/allied_telesis/computer_and_terminals/Smartphone.svg;" vertex="1" parent="1">
          <mxGeometry x="1312.5300000000002" y="210.00000000000003" width="41.88" height="91.38" as="geometry" />
        </mxCell>
        <mxCell id="GcWamPMHpTgms4pKiPbo-12" value="" style="shadow=0;dashed=0;html=1;labelPosition=center;verticalLabelPosition=bottom;verticalAlign=top;align=center;outlineConnect=0;shape=mxgraph.veeam.3d.workstation;" vertex="1" parent="1">
          <mxGeometry x="1291.88" y="340" width="120.65" height="98.42" as="geometry" />
        </mxCell>
        <mxCell id="GcWamPMHpTgms4pKiPbo-13" value="" style="shadow=0;dashed=0;html=1;labelPosition=center;verticalLabelPosition=bottom;verticalAlign=top;align=center;outlineConnect=0;shape=mxgraph.veeam.3d.workstation;" vertex="1" parent="1">
          <mxGeometry x="1291.88" y="100" width="120.65" height="98.42" as="geometry" />
        </mxCell>
        <mxCell id="GcWamPMHpTgms4pKiPbo-14" value="" style="points=[];aspect=fixed;html=1;align=center;shadow=0;dashed=0;image;image=img/lib/allied_telesis/computer_and_terminals/Smartphone.svg;" vertex="1" parent="1">
          <mxGeometry x="1320" y="469.99999999999994" width="41.88" height="91.38" as="geometry" />
        </mxCell>
        <mxCell id="GcWamPMHpTgms4pKiPbo-19" value="" style="outlineConnect=0;dashed=0;verticalLabelPosition=bottom;verticalAlign=top;align=center;html=1;shape=mxgraph.aws3.internet_3;fillColor=#D2D3D3;gradientColor=none;" vertex="1" parent="1">
          <mxGeometry x="660" y="308.52" width="170.65" height="129.9" as="geometry" />
        </mxCell>
        <mxCell id="GcWamPMHpTgms4pKiPbo-21" value="" style="endArrow=none;html=1;rounded=0;jumpSize=20;entryX=0;entryY=0.7;entryDx=0;entryDy=0;entryPerimeter=0;strokeWidth=4;endFill=0;" edge="1" parent="1" source="GcWamPMHpTgms4pKiPbo-3" target="GcWamPMHpTgms4pKiPbo-19">
          <mxGeometry width="50" height="50" relative="1" as="geometry">
            <mxPoint x="850" y="370" as="sourcePoint" />
            <mxPoint x="900" y="320" as="targetPoint" />
          </mxGeometry>
        </mxCell>
        <mxCell id="GcWamPMHpTgms4pKiPbo-25" value="" style="endArrow=none;html=1;rounded=0;jumpSize=20;entryX=1;entryY=0.7;entryDx=0;entryDy=0;entryPerimeter=0;strokeWidth=4;endFill=0;" edge="1" parent="1" source="GcWamPMHpTgms4pKiPbo-13" target="GcWamPMHpTgms4pKiPbo-19">
          <mxGeometry width="50" height="50" relative="1" as="geometry">
            <mxPoint x="628.0900000000001" y="357.83833743910554" as="sourcePoint" />
            <mxPoint x="905.3250000000003" y="250" as="targetPoint" />
          </mxGeometry>
        </mxCell>
        <mxCell id="GcWamPMHpTgms4pKiPbo-26" value="" style="endArrow=none;html=1;rounded=0;jumpSize=20;entryX=1;entryY=0.7;entryDx=0;entryDy=0;entryPerimeter=0;strokeWidth=4;endFill=0;" edge="1" parent="1" source="GcWamPMHpTgms4pKiPbo-11" target="GcWamPMHpTgms4pKiPbo-19">
          <mxGeometry width="50" height="50" relative="1" as="geometry">
            <mxPoint x="1370" y="320.1083938095235" as="sourcePoint" />
            <mxPoint x="905.3250000000003" y="250" as="targetPoint" />
          </mxGeometry>
        </mxCell>
        <mxCell id="GcWamPMHpTgms4pKiPbo-27" value="" style="endArrow=none;html=1;rounded=0;jumpSize=20;entryX=1;entryY=0.7;entryDx=0;entryDy=0;entryPerimeter=0;strokeWidth=4;endFill=0;" edge="1" parent="1" source="GcWamPMHpTgms4pKiPbo-12" target="GcWamPMHpTgms4pKiPbo-19">
          <mxGeometry width="50" height="50" relative="1" as="geometry">
            <mxPoint x="1309.38" y="415.5313969576114" as="sourcePoint" />
            <mxPoint x="905.3250000000003" y="250" as="targetPoint" />
          </mxGeometry>
        </mxCell>
        <mxCell id="GcWamPMHpTgms4pKiPbo-28" value="" style="endArrow=none;html=1;rounded=0;jumpSize=20;entryX=1;entryY=0.7;entryDx=0;entryDy=0;entryPerimeter=0;strokeWidth=4;exitX=-0.015;exitY=0.4;exitDx=0;exitDy=0;exitPerimeter=0;endFill=0;" edge="1" parent="1" source="GcWamPMHpTgms4pKiPbo-14" target="GcWamPMHpTgms4pKiPbo-19">
          <mxGeometry width="50" height="50" relative="1" as="geometry">
            <mxPoint x="1270" y="532.4815452941175" as="sourcePoint" />
            <mxPoint x="905.3250000000003" y="250" as="targetPoint" />
          </mxGeometry>
        </mxCell>
        <mxCell id="GcWamPMHpTgms4pKiPbo-29" value="" style="endArrow=none;html=1;rounded=0;jumpSize=20;entryX=1;entryY=0.7;entryDx=0;entryDy=0;entryPerimeter=0;strokeWidth=4;endFill=0;" edge="1" parent="1" source="GcWamPMHpTgms4pKiPbo-7" target="GcWamPMHpTgms4pKiPbo-19">
          <mxGeometry width="50" height="50" relative="1" as="geometry">
            <mxPoint x="1227.4918000000002" y="664.9720000000002" as="sourcePoint" />
            <mxPoint x="905.3250000000003" y="250" as="targetPoint" />
          </mxGeometry>
        </mxCell>
        <mxCell id="GcWamPMHpTgms4pKiPbo-30" value="" style="sketch=0;pointerEvents=1;shadow=0;dashed=0;html=1;strokeColor=none;fillColor=#505050;labelPosition=center;verticalLabelPosition=bottom;verticalAlign=top;outlineConnect=0;align=center;shape=mxgraph.office.concepts.application_web;" vertex="1" parent="1">
          <mxGeometry x="94.8" y="260" width="112.48" height="98.42" as="geometry" />
        </mxCell>
        <mxCell id="GcWamPMHpTgms4pKiPbo-31" value="" style="endArrow=classic;html=1;rounded=0;jumpSize=20;strokeWidth=4;" edge="1" parent="1" source="GcWamPMHpTgms4pKiPbo-3" target="GcWamPMHpTgms4pKiPbo-30">
          <mxGeometry width="50" height="50" relative="1" as="geometry">
            <mxPoint x="320" y="481.22304331683154" as="sourcePoint" />
            <mxPoint x="172.88999999999987" y="597.1379924790554" as="targetPoint" />
          </mxGeometry>
        </mxCell>
        <mxCell id="GcWamPMHpTgms4pKiPbo-32" value="Aplikasi Web" style="text;strokeColor=none;fillColor=none;align=left;verticalAlign=middle;spacingLeft=4;spacingRight=4;overflow=hidden;points=[[0,0.5],[1,0.5]];portConstraint=eastwest;rotatable=0;fontSize=20;" vertex="1" parent="1">
          <mxGeometry x="96.04" y="220" width="123.96" height="30" as="geometry" />
        </mxCell>
        <mxCell id="GcWamPMHpTgms4pKiPbo-33" value="Database" style="text;strokeColor=none;fillColor=none;align=left;verticalAlign=middle;spacingLeft=4;spacingRight=4;overflow=hidden;points=[[0,0.5],[1,0.5]];portConstraint=eastwest;rotatable=0;fontSize=20;" vertex="1" parent="1">
          <mxGeometry x="79.46000000000001" y="420" width="123.96" height="30" as="geometry" />
        </mxCell>
        <mxCell id="GcWamPMHpTgms4pKiPbo-34" value="Internet" style="text;strokeColor=none;fillColor=none;align=left;verticalAlign=middle;spacingLeft=4;spacingRight=4;overflow=hidden;points=[[0,0.5],[1,0.5]];portConstraint=eastwest;rotatable=0;fontSize=20;fontStyle=1" vertex="1" parent="1">
          <mxGeometry x="700" y="260" width="123.96" height="30" as="geometry" />
        </mxCell>
        <mxCell id="GcWamPMHpTgms4pKiPbo-35" value="User" style="text;strokeColor=none;fillColor=none;align=left;verticalAlign=middle;spacingLeft=4;spacingRight=4;overflow=hidden;points=[[0,0.5],[1,0.5]];portConstraint=eastwest;rotatable=0;fontSize=20;" vertex="1" parent="1">
          <mxGeometry x="1412.53" y="134.20999999999998" width="123.96" height="30" as="geometry" />
        </mxCell>
        <mxCell id="GcWamPMHpTgms4pKiPbo-36" value="User" style="text;strokeColor=none;fillColor=none;align=left;verticalAlign=middle;spacingLeft=4;spacingRight=4;overflow=hidden;points=[[0,0.5],[1,0.5]];portConstraint=eastwest;rotatable=0;fontSize=20;" vertex="1" parent="1">
          <mxGeometry x="1361.8799999999999" y="250" width="123.96" height="30" as="geometry" />
        </mxCell>
        <mxCell id="GcWamPMHpTgms4pKiPbo-37" value="User" style="text;strokeColor=none;fillColor=none;align=left;verticalAlign=middle;spacingLeft=4;spacingRight=4;overflow=hidden;points=[[0,0.5],[1,0.5]];portConstraint=eastwest;rotatable=0;fontSize=20;" vertex="1" parent="1">
          <mxGeometry x="1369.9999999999998" y="510" width="123.96" height="30" as="geometry" />
        </mxCell>
        <mxCell id="GcWamPMHpTgms4pKiPbo-38" value="Admin" style="text;strokeColor=none;fillColor=none;align=left;verticalAlign=middle;spacingLeft=4;spacingRight=4;overflow=hidden;points=[[0,0.5],[1,0.5]];portConstraint=eastwest;rotatable=0;fontSize=20;fontStyle=1" vertex="1" parent="1">
          <mxGeometry x="1278.9599999999998" y="640" width="123.96" height="30" as="geometry" />
        </mxCell>
        <mxCell id="GcWamPMHpTgms4pKiPbo-39" value="User" style="text;strokeColor=none;fillColor=none;align=left;verticalAlign=middle;spacingLeft=4;spacingRight=4;overflow=hidden;points=[[0,0.5],[1,0.5]];portConstraint=eastwest;rotatable=0;fontSize=20;" vertex="1" parent="1">
          <mxGeometry x="1419.9999999999998" y="380" width="123.96" height="30" as="geometry" />
        </mxCell>
      </root>
    </mxGraphModel>
  </diagram>
</mxfile>
